<?xml version="1.0" encoding="utf-8"?>
<!-- Generator: Adobe Illustrator 18.1.1, SVG Export Plug-In . SVG Version: 6.00 Build 0)  -->
<svg version="1.1" id="Capa_1" xmlns="http://www.w3.org/2000/svg" xmlns:xlink="http://www.w3.org/1999/xlink" x="0px" y="0px"
	 viewBox="196 0 564 560" enable-background="new 196 0 564 560" xml:space="preserve">
<path color-interpolation="sRGB" shape-rendering="auto" image-rendering="auto" color-rendering="auto" fill="#0C55BF" d="M480,0
	C325.5,0,200,125.5,200,280s125.5,280,280,280s280-125.5,280-280S634.5,0,480,0L480,0z M480,19.3c144,0,260.7,116.6,260.7,260.7
	S624,540.7,480,540.7S219.3,424,219.3,280S336,19.3,480,19.3L480,19.3z M480,38.6c-133.2,0-241.4,108.2-241.4,241.4
	S346.8,521.4,480,521.4S721.4,413.2,721.4,280S613.2,38.6,480,38.6L480,38.6z M480,58c122.8,0,222,99.3,222,222s-99.2,222-222,222
	s-222-99.2-222-222S357.2,58,480,58z M480,115.8c-90.5,0-164.2,73.6-164.2,164.2S389.5,444.2,480,444.2S644.2,370.5,644.2,280
	S570.5,115.8,480,115.8z M480,135.1c80.1,0,144.9,64.7,144.9,144.9S560.1,424.9,480,424.9S335.1,360.1,335.1,280
	S399.9,135.1,480,135.1z M480,154.5c-69.2,0-125.5,56.3-125.5,125.5S410.8,405.5,480,405.5S605.5,349.2,605.5,280
	S549.2,154.5,480,154.5z M480,173.8c58.8,0,106.2,47.4,106.2,106.2S538.8,386.2,480,386.2S373.8,338.8,373.8,280
	S421.2,173.8,480,173.8z M480,231.7c-26.5,0-48.3,21.8-48.3,48.3s21.8,48.3,48.3,48.3s48.3-21.8,48.3-48.3S506.5,231.7,480,231.7z
	 M480,251.1c16.1,0,28.9,12.9,28.9,28.9s-12.9,28.9-28.9,28.9s-28.9-12.9-28.9-28.9S463.9,251.1,480,251.1z M480,270.4
	c-5.3,0-9.6,4.4-9.6,9.6c0,5.3,4.4,9.6,9.6,9.6c5.3,0,9.6-4.4,9.6-9.6C489.6,274.7,485.3,270.4,480,270.4z"/>
</svg>
