<?xml version="1.0" encoding="utf-8"?>
<!-- Generator: Adobe Illustrator 18.1.1, SVG Export Plug-In . SVG Version: 6.00 Build 0)  -->
<svg version="1.1" id="Capa_1" xmlns="http://www.w3.org/2000/svg" xmlns:xlink="http://www.w3.org/1999/xlink" x="0px" y="0px"
	 viewBox="200 0 560 560" enable-background="new 200 0 560 560" xml:space="preserve">
<g>
	<path fill="#0C55BF" d="M498.7,66.2V18.7C498.7,8.4,490.4,0,480,0s-18.7,8.3-18.7,18.7v47.5c6.1-0.5,12.3-0.8,18.7-0.8
		S492.4,65.6,498.7,66.2z"/>
	<path fill="#0C55BF" d="M461.3,493.8v47.5c0,10.3,8.3,18.7,18.7,18.7s18.7-8.3,18.7-18.7v-47.5c-6.1,0.5-12.3,0.8-18.7,0.8
		S467.6,494.4,461.3,493.8z"/>
	<path fill="#0C55BF" d="M741.3,261.3h-47.5c0.5,6.1,0.8,12.3,0.8,18.7s-0.3,12.4-0.8,18.7h47.5c10.3,0,18.7-8.3,18.7-18.7
		S751.7,261.3,741.3,261.3z"/>
	<path fill="#0C55BF" d="M266.2,261.3h-47.5c-10.3,0-18.7,8.3-18.7,18.7c0,10.3,8.3,18.7,18.7,18.7h47.5c-0.5-6.1-0.8-12.3-0.8-18.7
		S265.6,267.6,266.2,261.3z"/>
	<path fill="#0C55BF" d="M461.3,168.6V66.2c-103.5,8.9-186.3,91.7-195.2,195.2h102.5C376.5,214,414,176.5,461.3,168.6z"/>
	<path fill="#0C55BF" d="M545.3,261.3H561c-7.2-30.9-31.4-55.3-62.3-62.3v15.7c0,10.3-8.3,18.7-18.7,18.7s-18.7-8.3-18.7-18.7V199
		c-30.9,7.2-55.3,31.4-62.3,62.3h15.7c10.3,0,18.7,8.3,18.7,18.7s-8.3,18.7-18.7,18.7H399c7.2,30.9,31.4,55.3,62.3,62.3v-15.7
		c0-10.3,8.3-18.7,18.7-18.7s18.7,8.3,18.7,18.7V361c30.9-7.2,55.3-31.4,62.3-62.3h-15.7c-10.3,0-18.7-8.3-18.7-18.7
		S535.1,261.3,545.3,261.3z M480,311.2c-17.2,0-31.2-14-31.2-31.2s14-31.2,31.2-31.2s31.2,14,31.2,31.2S497.2,311.2,480,311.2z"/>
	<path fill="#0C55BF" d="M498.7,66.2v102.5c47.4,7.9,84.8,45.3,92.7,92.7h102.5C684.9,157.8,602.2,75.1,498.7,66.2z"/>
	<path fill="#0C55BF" d="M498.7,391.4v102.5c103.5-8.9,186.3-91.7,195.2-195.2H591.4C583.5,346,546,383.5,498.7,391.4z"/>
	<path fill="#0C55BF" d="M461.3,391.4c-47.4-7.9-84.8-45.3-92.7-92.7H266.2c8.9,103.5,91.7,186.3,195.2,195.2V391.4z"/>
</g>
</svg>
