<?xml version="1.0" encoding="utf-8"?>
<!-- Generator: Adobe Illustrator 18.1.1, SVG Export Plug-In . SVG Version: 6.00 Build 0)  -->
<svg version="1.1" id="Capa_1" xmlns="http://www.w3.org/2000/svg" xmlns:xlink="http://www.w3.org/1999/xlink" x="0px" y="0px"
	 viewBox="200 19.3 560 521.5" enable-background="new 200 19.3 560 521.5" xml:space="preserve">
<g>
	<g>
		<path fill="#0C55BF" d="M613.7,19.3v55.9c53,37.3,89.7,96.2,97.4,163.9l-88.7,6.4V285l88.7,6.6c-7.7,67.6-44.4,126.4-97.4,163.7
			v55.9c87.1-47.5,146.3-140,146.3-246S700.8,66.8,613.7,19.3z"/>
		<path fill="#0C55BF" d="M200,265.3c0,106,59.2,198.4,146.3,246v-55.9c-53.1-37.4-89.8-96.3-97.4-164.1l84.7-6.2v-39.5l-84.7-6.2
			c7.6-67.7,44.4-126.7,97.4-164.1v-56C259.2,66.8,200,159.2,200,265.3z"/>
		<path fill="#0C55BF" d="M578.8,514.1l-27.5-27.5l-47-46.9c-5.8-5.8-13.6-9-21.9-9c-8.3,0-16.1,3.2-21.9,9l-48.1,48.1l-26.3,26.3
			c-4.9,4.9-6.6,9-7.1,12.2c-0.3,2.6,0.1,4.7,0.6,6c1.2,3.1,5.3,8.4,17.5,8.4h33.1h99.3h38.1c12.2,0,16.2-5.3,17.5-8.4
			c0.7-1.7,1.2-4.4,0.2-7.9C584.7,521.5,582.8,518.1,578.8,514.1z"/>
		<circle fill="#0C55BF" cx="480" cy="265.3" r="22.5"/>
	</g>
</g>
</svg>
