<?xml version="1.0" encoding="iso-8859-1"?>
<!-- Generator: Adobe Illustrator 16.0.0, SVG Export Plug-In . SVG Version: 6.00 Build 0)  -->
<!DOCTYPE svg PUBLIC "-//W3C//DTD SVG 1.1//EN" "http://www.w3.org/Graphics/SVG/1.1/DTD/svg11.dtd">
<svg version="1.1" id="Capa_1" xmlns="http://www.w3.org/2000/svg" xmlns:xlink="http://www.w3.org/1999/xlink" x="0px" y="0px"
	 width="356.187px" height="356.187px" viewBox="0 0 356.187 356.187" style="enable-background:new 0 0 356.187 356.187;"
	 xml:space="preserve">
<g>
	<path d="M185.839,165.369c0,11.361-9.247,20.6-20.59,20.6c-11.364,0-20.599-9.238-20.599-20.6c0-11.352,9.235-20.587,20.599-20.587
		C176.592,144.782,185.839,154.023,185.839,165.369z M194.63,160.088v10.568h135.108v-10.568H194.63z M178.069,192.622l89.982,89.97
		l7.476-7.458l-89.987-90.006L178.069,192.622z M159.953,356.187h10.577V194.76h-10.577V356.187z M137.584,160.088H26.448v10.568
		h111.137V160.088z M159.953,137.144v1.729h10.577V0h-10.577v132.532L110.515,25.623l-1.48-3.249l-9.61,4.44l52.677,113.959
		L159.953,137.144z M145.871,156.704l6.299-8.479L65.557,83.884l-6.305,8.491l83.767,62.246L145.871,156.704z M275.551,57.799
		l-7.662-7.299l-89.855,94.755l7.659,7.26L275.551,57.799z M65.936,275.62l7.983,6.936l78.491-90.426l-7.983-6.93L65.936,275.62z
		 M197.98,188.581l103.943,29.093l2.822-10.184l-103.943-29.094L197.98,188.581z M76.852,194.592l3.651,9.914l58.667-21.51
		l-3.609-9.929L76.852,194.592z M196.563,156.527l93.411-32.393l-3.459-9.986l-93.41,32.387L196.563,156.527z"/>
</g>
<g>
</g>
<g>
</g>
<g>
</g>
<g>
</g>
<g>
</g>
<g>
</g>
<g>
</g>
<g>
</g>
<g>
</g>
<g>
</g>
<g>
</g>
<g>
</g>
<g>
</g>
<g>
</g>
<g>
</g>
</svg>
