<?xml version="1.0" encoding="iso-8859-1"?>
<!-- Generator: Adobe Illustrator 18.1.1, SVG Export Plug-In . SVG Version: 6.00 Build 0)  -->
<svg version="1.1" id="Capa_1" xmlns="http://www.w3.org/2000/svg" xmlns:xlink="http://www.w3.org/1999/xlink" x="0px" y="0px"
	 viewBox="0 0 290 290" style="enable-background:new 0 0 290 290;" xml:space="preserve">
<path color-rendering="auto" image-rendering="auto" shape-rendering="auto" color-interpolation="sRGB" d="M145,0
	C64.978,0,0,64.978,0,145s64.978,145,145,145c80.022,0,145-64.978,145-145S225.022,0,145,0L145,0z M145,10
	c74.618,0,135,60.382,135,135s-60.382,135-135,135c-74.618,0-135-60.383-135-135S70.382,10,145,10L145,10z M145,20
	C76.024,20,20,76.024,20,145s56.024,125,125,125c68.976,0,125-56.024,125-125S213.976,20,145,20L145,20z M145,30
	c63.572,0,115,51.428,115,115c0,63.572-51.428,115-115,115c-63.572,0-115-51.428-115-115C30,81.428,81.428,30,145,30z M145,60
	c-46.885,0-85,38.115-85,85c0,46.885,38.115,85,85,85s85-38.115,85-85C230,98.115,191.885,60,145,60z M145,70
	c41.481,0,75,33.519,75,75c0,41.481-33.519,75-75,75s-75-33.519-75-75C70,103.519,103.519,70,145,70z M145,80
	c-35.839,0-65,29.161-65,65s29.161,65,65,65s65-29.161,65-65S180.839,80,145,80z M145,90c30.435,0,55,24.565,55,55s-24.565,55-55,55
	s-55-24.565-55-55S114.565,90,145,90z M145,120c-13.748,0-25,11.252-25,25s11.252,25,25,25s25-11.252,25-25S158.748,120,145,120z
	 M145,130c8.344,0,15,6.656,15,15s-6.656,15-15,15s-15-6.656-15-15S136.657,130,145,130z M145,140c-2.761,0-5,2.239-5,5s2.239,5,5,5
	s5-2.239,5-5S147.761,140,145,140z"/>
<g>
</g>
<g>
</g>
<g>
</g>
<g>
</g>
<g>
</g>
<g>
</g>
<g>
</g>
<g>
</g>
<g>
</g>
<g>
</g>
<g>
</g>
<g>
</g>
<g>
</g>
<g>
</g>
<g>
</g>
</svg>
