<?xml version="1.0" encoding="iso-8859-1"?>
<!-- Generator: Adobe Illustrator 19.0.0, SVG Export Plug-In . SVG Version: 6.00 Build 0)  -->
<svg version="1.1" id="Capa_1" xmlns="http://www.w3.org/2000/svg" xmlns:xlink="http://www.w3.org/1999/xlink" x="0px" y="0px"
	 viewBox="0 0 339.223 339.223" style="enable-background:new 0 0 339.223 339.223;" xml:space="preserve">
<g>
	<polygon points="213.834,141.224 177.111,157.953 177.111,117.6 162.111,117.6 162.111,157.953 125.388,141.224 119.17,154.874 
		151.52,169.611 119.17,184.349 125.388,197.999 162.111,181.27 162.111,221.624 177.111,221.624 177.111,181.27 213.834,197.999 
		220.052,184.349 187.703,169.611 220.052,154.874 	"/>
	<path d="M339.222,169.611l-82.698-36l33.021-83.933l-83.933,33.019L169.611,0l-36,82.697L49.678,49.679l33.02,83.933L0,169.611
		l82.697,36.001l-33.02,83.932l83.933-33.019l36,82.697l36.001-82.697l83.933,33.02l-33.021-83.933L339.222,169.611z
		 M262.97,262.972l-65.335-25.704l-28.024,64.375l-28.024-64.375l-65.336,25.704l25.703-65.336L37.58,169.611l64.374-28.023
		L76.251,76.251l65.336,25.704l28.024-64.375l28.024,64.375l65.335-25.704l-25.704,65.337l64.376,28.023l-64.376,28.024
		L262.97,262.972z"/>
</g>
<g>
</g>
<g>
</g>
<g>
</g>
<g>
</g>
<g>
</g>
<g>
</g>
<g>
</g>
<g>
</g>
<g>
</g>
<g>
</g>
<g>
</g>
<g>
</g>
<g>
</g>
<g>
</g>
<g>
</g>
</svg>
