<?xml version="1.0" encoding="utf-8"?>
<!-- Generator: Adobe Illustrator 18.1.1, SVG Export Plug-In . SVG Version: 6.00 Build 0)  -->
<svg version="1.1" id="Capa_1" xmlns="http://www.w3.org/2000/svg" xmlns:xlink="http://www.w3.org/1999/xlink" x="0px" y="0px"
	 viewBox="199.8 0 750.7 752.4" enable-background="new 199.8 0 750.7 752.4" xml:space="preserve">
<g>
	<g id="Layer_5_18_">
		<g>
			<path fill="#99003D" d="M657.5,361.3c-17.9,4-34.5,0.3-48.9-3.1c-9.2-2.2-9.9-8.9-3.3-15.7c12.5-13.2,20.2-31,20.2-50.6
				c0-40.7-32.9-73.7-73.7-73.7c-29.5,0-54.9,17.4-66.7,42.4c-4,8.6-12.8,14.5-22.1,12.9c-18.2-3.1-31.1-2.1-31.1,15.6
				c0,17.8,22.2,35.4,49.2,48.2c8.5,4,8.6,9.6,0.8,14.9c-26.7,17.9-44.2,48.2-44.2,82.8c0,55,40.2,87.8,95.1,91.5
				c114,7.4,160.1-10.7,183.6-76.3C766.4,310,683.5,355.4,657.5,361.3z"/>
			<path fill="#99003D" d="M937.9,342.6h-24.5c-1.4,0-8.3-0.4-9.5-8.9C884.6,185.6,767.7,68.2,619.6,48.4
				C609,47,607.9,39.9,607.9,37V12.8c0-7.1-5.7-12.8-12.8-12.8h-39.8c-7.1,0-12.8,5.7-12.8,12.8v24.3c0,5.8-4.9,10.4-12,11.4
				c-78,10.4-149.8,48.7-202.5,107.6c-44.6,49.9-72.8,111.2-81.6,177.2c-1,7-5.7,9.5-9.7,9.5h-24.2c-7.1,0-12.8,5.7-12.8,12.8v39.8
				c0,7.1,5.7,12.8,12.8,12.8h23.8c4.2,0,8.9,2.5,9.7,9.6c8.9,72.6,42.3,141.2,94,193.2s120.2,85.8,192.7,95.1
				c4.9,0.6,9.7,4.2,9.7,9.6V738c0,7.1,5.7,12.8,12.8,12.8H595c7.1,0,12.8-5.7,12.8-12.8v-22.4c0-5,4-8.9,10.3-9.7
				c72.6-9.5,140.9-43.4,192.7-95.5c51.7-52.3,84.9-121.1,93.7-193.8c0.7-6.3,5.4-8.5,9.3-8.5h24c7.1,0,12.8-5.7,12.8-12.8v-39.8
				C950.7,348.3,945,342.6,937.9,342.6z M595.2,621.2h-39.8c-7.1,0-12.8,5.7-12.8,12.8v11c0,4.9-3.3,9.7-11,9.7
				c-1.1,0-2.2-0.1-3.5-0.3c-120-20.2-212.7-114.5-230.9-235c-0.3-1.4-1.1-5,1.5-8.2c1.7-1.9,4-3.1,6.8-3.1h11.1
				c7.1,0,12.8-5.7,12.8-12.8v-39.8c0-7.1-5.7-12.8-12.8-12.8h-10.6c-2.6,0-5.1-1-6.7-2.9c-1.7-1.9-2.2-4.3-1.8-7.1
				c8.5-53.2,32-102.7,68.1-143c42.7-47.7,100.8-79.6,163.6-89.9h0.3c1-0.1,2.4-0.4,3.8-0.4c6.4,0,9.2,4.4,9.2,8.5v9
				c0,7.1,5.7,12.8,12.8,12.8h39.8c7.1,0,12.8-5.7,12.8-12.8v-9c0-4,2.9-8.5,9.5-8.5c1.7,0,3.2,0.3,4.3,0.4
				c117.9,19.6,210.7,111.9,230.7,229.6c0.3,1.9,1.1,6.5-1.9,10.1c-1.8,2.1-4.4,3.3-7.4,3.3h-9.2c-7.1,0-12.8,5.7-12.8,12.8v39.8
				c0,7.1,5.7,12.8,12.8,12.8h9.6c3.1,0,5.7,1.1,7.5,3.2c2.9,3.5,2.4,7.8,2.1,9.5C834.5,541,741.5,634.8,621.5,654.7
				c-1.1,0.1-2.1,0.3-3.1,0.3c-6.1,0-10.4-4-10.4-9.7v-11C608,626.9,602.3,621.2,595.2,621.2z"/>
		</g>
	</g>
</g>
</svg>
